<?xml version="1.0" encoding="UTF-8" standalone="no"?>
<svg xmlns:rdf="http://www.w3.org/1999/02/22-rdf-syntax-ns#" xmlns="http://www.w3.org/2000/svg" height="39.072" viewBox="0 0 189.56512 39.072222" width="189.56" version="1.1" xmlns:cc="http://creativecommons.org/ns#" xmlns:dc="http://purl.org/dc/elements/1.1/">
 <g transform="matrix(.5 0 0 .5 .71444 .93895)">
  <path d="m43.842 7.8242c-12.969-0.0643-13.718 0.021-18.016 2.084-0.968 0.4648-2.099 1.0878-2.514 1.3828-1.242 0.884-3.519 3.122-3.519 3.459 0 0.17225-0.06783 0.3125-0.15039 0.3125-0.39819 0-2.1903 3.3628-2.1934 4.1152-0.0012 0.28113-0.06732 0.58235-0.14648 0.66992-0.52886 0.58489-0.69594 5.6829-0.25781 7.8691 0.14778 0.73739 0.33539 1.679 0.41797 2.0938 0.15681 0.78767 0.83976 2.2118 1.6211 3.3848 0.25199 0.37828 0.5333 0.80756 0.625 0.95508 0.41478 0.66717 3.1902 3.2275 4.3633 4.0234 1.635 1.1093 3.6201 2.315 4.1289 2.5098 0.21451 0.08212 1.0689 0.51771 1.8984 0.9668 0.82957 0.44909 1.8469 0.95747 2.2617 1.1309 0.41478 0.17339 1.8111 0.82245 3.1016 1.4414 6.8979 3.3087 7.4897 3.6497 8.0762 4.6504 0.60365 1.03 0.62202 2.1063 0.05078 2.9453-0.23044 0.33845-0.54531 0.61456-0.70117 0.61524-0.15586 0.00062-0.33815 0.09023-0.4043 0.19726-0.12402 0.19956-14.344 0.10706-21.393-0.13867l-3.1426-0.10938v-3.6602c0-3.1422-0.03617-3.6621-0.25195-3.6621-0.13826 0-0.25 0.07579-0.25 0.16797 0 0.09217-0.08613 0.16797-0.19141 0.16797-0.20798 0-1.9869 1.4495-2.2051 1.7969-0.07371 0.11736-0.36292 0.33195-0.64258 0.47656s-0.93794 0.65786-1.4609 1.1387c-0.52301 0.48081-1.3014 1.115-1.7305 1.4102-0.42906 0.29521-0.80484 0.59596-0.83594 0.66797-0.0848 0.19648-1.734 1.5488-1.8887 1.5488-0.073806 0-0.3712 0.25032-0.66016 0.55664-0.2899 0.308-1.3184 1.193-2.2861 1.97s-1.9084 1.564-2.0918 1.748-0.6108 0.523-0.9492 0.754c-0.3385 0.23-1.0405 0.823-1.5606 1.316l-0.9453 0.899 1.0566 0.982c0.58096 0.54068 1.11 0.98574 1.1758 0.98828 0.065829 0.0025 0.70645 0.53252 1.4238 1.1777 0.7174 0.645 1.3937 1.174 1.504 1.174 0.11026 0 0.29948 0.13094 0.41992 0.29297 0.12045 0.16202 0.63312 0.63476 1.1387 1.0488 0.50555 0.41406 1.0701 0.87545 1.2559 1.0273 0.18576 0.15188 0.8209 0.6805 1.4102 1.1738 0.58928 0.49333 1.3934 1.1389 1.7871 1.4336 0.39367 0.29471 0.97585 0.79616 1.2949 1.1152 0.31907 0.31907 0.87335 0.77058 1.2305 1.002 0.35712 0.23137 1.1013 0.8386 1.6543 1.3516 0.55304 0.51296 1.0949 0.93405 1.2031 0.93555 0.10821 0.0015 0.37154 0.22467 0.58594 0.49609 0.75728 0.95861 0.79927 0.79543 0.84766-3.3008l0.04492-3.8125 0.75391 0.02148c0.41478 0.01102 4.7694 0.03472 9.6777 0.05469 6.2137 0.02529 8.9238 0.09172 8.9238 0.2168 0 0.20508 5.2163 0.06547 7.877-0.21094 2.0872-0.21683 4.7155-0.73229 5.1113-1.002 0.09217-0.0628 0.62078-0.29109 1.1738-0.50781 0.55304-0.21674 1.0438-0.44016 1.0898-0.49609 0.16213-0.19675 1.3619-0.8418 1.5664-0.8418 0.11379 0 0.46975-0.2434 0.79102-0.54297 0.32125-0.29956 0.87197-0.77231 1.2246-1.0488 0.72633-0.56964 2.5459-2.8444 3.082-3.8535 0.54362-1.0233 1.3674-3.6148 1.6387-5.1562 0.54321-3.0867 0.19458-7.16-0.82617-9.6621-0.2415-0.59198-0.43945-1.1405-0.43945-1.2188 0-0.17265-0.82838-1.4945-1.084-1.7285-0.10067-0.09217-0.5429-0.63742-0.98242-1.2129-0.43954-0.57547-0.95331-1.1283-1.1406-1.2285-0.32955-0.17639-0.61551-0.40909-1.6855-1.3613-0.27853-0.24786-0.78186-0.57846-1.1172-0.73633-0.33533-0.15787-0.87084-0.50311-1.1914-0.76562-0.32056-0.26253-0.64394-0.47656-0.71875-0.47656s-0.52876-0.26333-1.0078-0.58594c-0.47905-0.32261-0.97462-0.58789-1.1016-0.58789-0.26913 0-1.5917-0.69419-1.6738-0.87891-0.03072-0.06913-0.16239-0.125-0.29297-0.125-0.13059 0-0.23633-0.0758-0.23633-0.16797 0-0.09218-0.12383-0.16797-0.27344-0.16797s-0.69619-0.21359-1.2148-0.47461c-2.743-1.3805-4.1405-2.0503-4.2676-2.0449-0.07794 0.0033-0.34738-0.14014-0.59766-0.31836-0.2503-0.17821-0.67638-0.37772-0.94727-0.44336-0.27082-0.06564-1.2657-0.54202-2.2109-1.0586s-2.0384-1.1032-2.4297-1.3027c-0.39132-0.1995-0.93458-0.59659-1.207-0.88281-0.45376-0.47667-0.49609-0.62082-0.49609-1.7148 0-1.1461 0.0223-1.2134 0.55274-1.6562 0.30402-0.25381 0.791-0.49543 1.082-0.53906 0.29094-0.04363 5.5064-0.04027 11.59 0.0078l11.061 0.08789-0.03125-7.0234-0.0332-7.0215-1.9785-0.11523c-1.091-0.0631-6.582-0.1389-12.204-0.1668zm20.521 0.033203 0.05664 22.75c0.04937 20.244 0.08486 22.842 0.32227 23.588 0.49756 1.5626 1.0191 2.8342 1.498 3.6465 0.26254 0.44528 0.47852 0.88378 0.47852 0.97461 0 0.58522 4.3818 5.1836 4.9395 5.1836 0.06087 0 0.42762 0.20746 0.81445 0.46094 1.8867 1.2364 2.6113 1.5886 4.6621 2.2734 2.2504 0.75154 4.3058 1.2489 6.3418 1.5332 2.1805 0.30446 7.5522 0.30769 9.5527 0.0059 2.9333-0.44264 5.0918-0.99096 6.6445-1.6895 0.29045-0.13067 0.65577-0.23828 0.81055-0.23828 0.33382 0 3.04-1.4172 3.5215-1.8438 0.18435-0.16332 0.61224-0.43743 0.94922-0.60938 0.80257-0.40942 3.6159-3.0198 3.9492-3.6641 0.14306-0.27652 0.42259-0.66637 0.62109-0.86719 0.48214-0.48785 1.6322-2.6025 1.8848-3.4668 0.11133-0.3811 0.39223-1.3716 0.625-2.2012l0.42382-1.5098 0.006-22.162 0.006-22.164h-8.7988-8.7988v21.188c0 13.061-0.06147 21.352-0.16016 21.611-0.20714 0.54472-1.3225 1.7793-1.6074 1.7793-0.12097 0-0.32142 0.10071-0.44531 0.22461-0.58438 0.58435-2.0101 0.86524-4.4062 0.86524h-2.3457l-1.3301-0.64648c-1.397-0.676-1.782-1.039-2.405-2.27l-0.37695-0.74414v-21.004-21.004h-8.7188-8.7188zm53.635 0.00195v29.662 29.664l15.795-0.0059c16.06-0.0054 17.585-0.05532 19.564-0.6543 0.322-0.09744 0.79119-0.17774 1.043-0.17774 0.44345 0 2.0238-0.6387 3.3984-1.373 0.3687-0.19695 1.0837-0.57864 1.5879-0.84766 0.78548-0.41914 1.7448-1.2253 3.2578-2.7363 0.45599-0.45534 1.4802-1.8838 1.998-2.7891 0.44717-0.78147 1.4603-3.6879 1.7988-5.1582 0.28681-1.2459 0.43729-4.491 0.27929-6.0332-0.12071-1.1783-0.83638-3.9014-1.123-4.2734-0.071-0.09217-0.22547-0.4692-0.3418-0.83789-0.31758-1.0069-2.318-3.4262-3.7461-4.5293-0.35554-0.27464-0.8232-0.66072-1.0391-0.85938-0.21587-0.19866-0.69694-0.49543-1.0703-0.66016-0.37338-0.16472-0.67969-0.3472-0.67969-0.4043 0-0.1033 0.92969-0.83789 1.0606-0.83789 0.12502 0 2.7949-2.6363 2.7949-2.7598 0-0.06662 0.14099-0.32174 0.31445-0.56641 0.49548-0.69868 1.4624-2.5844 1.6953-3.3066 0.11643-0.36105 0.29719-0.76321 0.40039-0.89258 0.12478-0.15636 0.18183-1.308 0.17383-3.4355-0.0115-2.9792-0.0421-3.2963-0.45508-4.5957-0.50931-1.6023-1.6827-4.0495-2.2969-4.791-1.0803-1.304-2.3539-2.5496-3.3086-3.2324-1.3265-0.94872-3.6533-2.0836-5.4043-2.6367-2.7-0.851-4.52-0.9316-20.8-0.9316h-14.898zm17.262 12.881 4.7344 0.05469c5.136 0.0581 5.0975 0.05189 6.3125 1.0742 1.3039 1.0972 1.8138 3.627 1.2617 6.2695-0.1929 0.92375-1.3275 2.4592-2.1348 2.8906-0.67672 0.36166-0.90265 0.37837-5.4394 0.42969l-4.7344 0.05469v-5.3867-5.3867zm0.125 22.113c0.0692-0.02848 2.5453-0.01484 5.502 0.03125l5.375 0.08398 0.70508 0.4668c0.38816 0.25706 0.98544 0.89937 1.3262 1.4258l0.61914 0.95703 0.002 2.4434c0.002 2.2371-0.0308 2.5146-0.40234 3.3086-0.22314 0.47689-0.50741 0.86719-0.63281 0.86719-0.12539 0-0.27022 0.10769-0.32032 0.23828-0.14463 0.37689-1.2516 1.0285-2.1094 1.2422-0.50629 0.12608-2.4613 0.19531-5.4883 0.19531h-4.7012v-5.6035c0-3.0825 0.0559-5.6278 0.125-5.6562z" fill="#ffffff" transform="translate(0 -.00033570)"/>
  <path d="m357.46 0.30469c-0.12042 0.0658-0.12982 0.81859-0.13282 3.4883l-0.004 3.7285-6.7441 0.00391c-6.4899 0.00318-7.3534 0.051396-10.223 0.56445-2.3714 0.424-4.981 1.9931-6.5566 3.9434-1.2857 1.5913-2.072 3.375-2.7051 6.1309-0.0635 0.27652-0.16441 3.5939-0.22461 7.373-0.12046 7.5667-0.0687 7.2-1.2402 8.6582-0.94956 1.1819-3.2668 1.9825-5.7402 1.9824-1.2092-0.00005-3.3205-0.48869-4.0391-0.93359-0.91312-0.56548-1.935-1.589-2.1328-2.1367-0.13432-0.37188-0.21724-4.223-0.27734-12.85l-0.0859-12.316-8.5898-0.042969-8.5879-0.044922 0.002 13.115c0.002 7.2135 0.072 13.593 0.15625 14.176 0.18471 1.2775 0.88895 3.6556 1.4238 4.8066 1.0094 2.1723 3.3803 4.8867 5.5586 6.3672 0.54249 0.36868 1.1358 0.80582 1.3184 0.9707 0.18253 0.16488 0.52165 0.34306 0.7539 0.39648 0.23226 0.05343 0.72927 0.27202 1.1055 0.48633 0.78482 0.44709 2.9651 1.3394 4.1348 1.6914l0.79687 0.24024v8.5391 8.541h8.7148 8.7148v-8.5078-8.5078l1.3828-0.47852c2.0164-0.69734 5.9309-2.6515 6.9844-3.4863 1.3345-1.0577 3.4812-3.279 4.0996-4.2422 0.76457-1.1907 1.8505-3.6648 2.1699-4.9434 0.45591-1.8252 0.60828-4.0557 0.61328-9.0488 0.003-2.627 0.0501-4.9457 0.10547-5.1523 0.16373-0.61109 1.0337-0.72492 5.2031-0.67578l3.8242 0.04492 0.0469 3.6465c0.0278 2.2393 0.10804 3.6445 0.20898 3.6445 0.0904 0 0.16407-0.0758 0.16407-0.16797s0.0938-0.16763 0.20898-0.16797c0.11522-0.000318 0.78798-0.52893 1.4941-1.1738 0.70618-0.6449 1.3481-1.1719 1.4277-1.1719s0.59527-0.4259 1.1445-0.94531c0.54926-0.51941 1.2638-1.1156 1.5879-1.3262 0.3241-0.21052 1.0407-0.80345 1.5938-1.3164 0.55304-0.51296 1.0627-0.93209 1.1309-0.93359s0.52511-0.361 1.0156-0.79883c1.0908-0.97386 4.2801-3.6233 5.2148-4.332 0.37633-0.28535 1.0985-0.91019 1.6055-1.3887l0.92188-0.87109-1.1504-1.082c-0.63268-0.59576-1.25-1.084-1.3711-1.084-0.12106 0-0.35741-0.17156-0.5254-0.38086-0.16798-0.20932-0.7575-0.73611-1.3105-1.1719-0.55305-0.43576-1.1574-0.93314-1.3418-1.1055-0.18435-0.17233-1.1429-0.96776-2.1309-1.7676-0.98795-0.79985-2.0187-1.6769-2.291-1.9492-0.27232-0.27233-0.56254-0.49609-0.64454-0.49609s-0.72163-0.52666-1.4219-1.1719c-0.7-0.6423-1.35-1.1709-1.43-1.1709-0.0857 0-0.60169-0.41875-1.1465-0.93164-0.5448-0.51289-1.2915-1.1262-1.6602-1.3613-0.3687-0.23509-0.80168-0.58836-0.96094-0.78516-0.0691-0.085387-0.12001-0.13912-0.16015-0.11719zm-85.006 5.7832c-1.0377-0.016624-2.0708 0.013323-3.0781 0.091797-3.2918 0.25636-6.5626 0.93073-8.4531 1.7441-0.34269 0.14744-0.75093 0.26953-0.90821 0.26953-0.36283 0-2.7535 1.2244-3.6328 1.8613-0.36694 0.26581-0.75885 0.48437-0.86914 0.48437-0.11029 0.000001-0.45581 0.24469-0.76953 0.54492-0.31371 0.30025-1.043 0.9541-1.6191 1.4512-0.57609 0.49705-1.0469 0.97585-1.0469 1.0645 0.00001 0.08859-0.28971 0.50993-0.64453 0.9375-1.0825 1.3045-1.4892 2.0428-2.1855 3.9629-1.2529 3.454-1.1914 2.0788-1.1914 26.664v22.02h8.6309 8.6289v-8.5469-8.5469h6.6211 6.6191v8.5469 8.5469h8.6309 8.6309v-21.912c-0.00047-19.01-0.0351-22.108-0.25977-23.393-0.39986-2.2866-1.7771-5.8357-2.5742-6.6328-0.17051-0.17049-0.61568-0.75989-0.98829-1.3086-0.37261-0.5487-0.85541-1.1144-1.0742-1.2578-0.2188-0.14337-0.80392-0.64568-1.2988-1.1152-0.49491-0.46955-1.0506-0.90064-1.2344-0.95898-0.18383-0.05835-0.67883-0.35337-1.1016-0.6543-0.98-0.6996-2.7-1.5613-3.68-1.8475-0.42-0.1227-1.41-0.4227-2.19-0.666-2.68-0.8316-5.84-1.2997-8.95-1.3496zm-29.75 1.7656-8.6777 0.044922-8.6797 0.042969-0.084 21.283-0.084 21.285-0.45117 0.76562c-0.5603 0.95296-0.65451 1.0287-1.8945 1.4922-1.979 0.73976-5.236 0.38214-6.418-0.70508-0.22714-0.20893-0.55249-0.68208-0.72266-1.0508-0.29556-0.64019-0.3085-1.6132-0.3125-21.648-0.002-11.537-0.0495-21.094-0.10547-21.24-0.0908-0.23693-1.0081-0.26562-8.6309-0.26562h-8.5293v20.992c0 13.101-0.0623 21.206-0.16406 21.561-0.42869 1.4948-1.7833 2.4423-3.8691 2.707-1.2552 0.15929-2.9222-0.02739-3.7012-0.41602-0.29137-0.14536-0.61853-0.26367-0.72656-0.26367-0.30542 0-0.84084-0.6804-1.1914-1.5098-0.30684-0.72566-0.32073-1.5422-0.36133-21.703-0.0232-11.522-0.0431-21.041-0.043-21.156 0.00033-0.16488-1.8378-0.21094-8.6309-0.21094h-8.6308v21.766c0 23.936-0.0318 23.078 1.0352 26.332 0.91789 2.7996 2.0974 4.6719 4.2656 6.7656 0.72605 0.70109 1.3722 1.276 1.4355 1.2773 0.0633 0.0014 0.60083 0.33518 1.1953 0.74219 1.4468 0.99065 1.7455 1.134 3.8438 1.8418 2.1217 0.71577 3.5346 1.065 5.4863 1.3574h0.002c2.0409 0.30587 6.6351 0.30447 8.3867-0.002 2.0979-0.36702 5.6733-1.5086 6.8438-2.1855 0.31161-0.18023 0.91406-0.56729 1.3398-0.86133 1.5398-1.0634 1.9871-1.2541 2.4062-1.0195 0.20834 0.11661 0.41679 0.25869 0.46289 0.31445 0.20547 0.24853 3.3111 2.012 3.6875 2.0938 0.23044 0.05006 0.60746 0.17029 0.83789 0.26758 0.90532 0.3822 2.8336 0.95709 4.1894 1.25 2.0206 0.43656 7.9637 0.44045 10.139 0.0059 1.5996-0.31964 3.5244-0.84803 4.3574-1.1953 0.27652-0.11528 0.80513-0.30399 1.1738-0.41992 0.36868-0.11594 0.93325-0.37995 1.2558-0.58594 0.32256-0.20598 1.1124-0.70669 1.7539-1.1133 0.64154-0.40657 1.7088-1.2669 2.3711-1.9121 1.3451-1.3102 3.081-3.5204 3.084-3.9258 0.001-0.14537 0.19093-0.59599 0.42187-1 0.48975-0.85672 1.1213-2.6289 1.5293-4.293 0.26282-1.0726 0.2921-3.0848 0.3457-23.338l0.0586-22.166zm28.447 13.104c0.43904-0.01663 0.91884-0.01423 1.4551 0.0059 1.6539 0.06197 1.9739 0.1268 3.1016 0.63476 1.6527 0.74443 1.9034 0.99216 2.416 2.375l0.43164 1.166v5.6035 5.6055h-6.625-6.625l0.0469-5.9082 0.0488-5.9062 0.44922-0.92773c0.53503-1.1045 0.75992-1.3162 2.0254-1.9043 1.009-0.4689 1.9583-0.69425 3.2754-0.74414z" transform="translate(0 -.00033570)" stroke="#ffffff" stroke-width=".16759" fill="#ffffff"/>
 </g>
</svg>
