<svg width="3728" height="1607" xmlns="http://www.w3.org/2000/svg" xmlns:xlink="http://www.w3.org/1999/xlink" overflow="hidden"><defs><clipPath id="clip0"><rect x="453" y="3467" width="3728" height="1607"/></clipPath></defs><g clip-path="url(#clip0)" transform="translate(-453 -3467)"><path d="M1090.41 3728.17C1077.83 3707.11 1069.44 3681.83 1056.86 3669.2 1044.28 3707.11 1035.89 3740.81 1023.31 3795.57 1308.47 3669.2 2038.13 3547.04 2528.77 3547.04 2973.28 3547.04 3589.72 3660.77 3828.75 3761.87 3874.88 3900.88 4000.68 3955.64 4181 3955.64 4160.03 4027.25 4055.2 4082.02 3908.42 4082.02 3761.65 4082.02 3669.4 4027.25 3610.69 4014.62 3556.17 4001.98 3451.34 4027.25 3371.66 4014.62 3271.02 4001.98 3166.18 3947.22 3111.66 3947.22 3019.41 3947.22 2847.47 3993.55 2746.83 3993.55 2608.45 3993.55 2390.39 3934.58 2310.71 3900.88 2302.32 3913.52 2302.32 3913.52 2302.32 3913.52 2390.39 3947.22 2528.77 4014.62 2595.87 4027.25 2574.9 4082.02 2449.09 4199.96 2402.97 4221.03 2402.97 4233.66 2402.97 4233.66 2402.97 4233.66 2423.93 4233.66 2482.64 4221.03 2495.22 4208.39 2503.61 4221.03 2503.61 4221.03 2503.61 4221.03 2495.22 4267.36 2461.68 4360.04 2436.51 4393.74 2382 4368.46 2323.29 4322.12 2289.74 4288.42 2323.29 4242.09 2356.84 4140.99 2369.42 4082.02 2356.84 4073.59 2356.84 4073.59 2356.84 4073.59 2344.26 4128.35 2289.74 4221.03 2256.19 4254.73 2184.91 4199.96 2025.55 4107.29 1924.91 4060.95 1912.33 4073.59 1912.33 4073.59 1912.33 4073.59 2105.23 4187.33 2289.74 4381.1 2516.19 4520.11 2595.87 4574.87 2906.18 4680.18 3006.83 4747.58 3157.79 4840.25 3157.79 4920.29 3132.63 4987.69 3099.08 5067.73 3052.96 5093 2906.18 5059.3 2755.22 5021.39 2608.45 4953.99 2449.09 4886.59 2289.74 4806.55 2071.68 4772.85 1933.3 4772.85 1820.07 4781.28 1719.43 4827.62 1513.95 4806.55 1375.56 4781.28 1077.83 4667.54 964.604 4587.51 977.185 4692.82 989.765 4806.55 1023.31 4886.59 1035.89 4873.95 1069.44 4827.62 1077.83 4806.55 1090.41 4781.28 1102.99 4734.94 1115.57 4701.24 1170.08 4726.52 1170.08 4726.52 1170.08 4726.52 1149.12 4852.89 1090.41 4920.29 1056.86 4966.63 1010.73 5000.33 977.185 5012.96 943.637 5000.33 453 5000.33 453 5000.33 453 5000.33 465.58 4987.69 465.58 4987.69 465.58 4987.69 671.061 4747.58 671.061 4747.58 671.061 4747.58 692.028 4726.52 704.609 4713.88 692.028 4713.88 692.028 4701.24 679.448 4713.88 658.48 4734.94 465.58 4932.93 465.58 4932.93 465.58 4932.93 465.58 4873.95 465.58 4873.95 465.58 4873.95 658.48 4654.91 658.48 4654.91 658.48 4654.91 679.448 4633.84 692.028 4621.21 692.028 4621.21 679.448 4608.57 671.061 4608.57 645.9 4633.84 465.58 4814.98 465.58 4814.98 465.58 4814.98 465.58 4772.85 465.58 4772.85 465.58 4772.85 671.061 4541.17 671.061 4541.17 671.061 4541.17 679.448 4520.11 692.028 4507.47 692.028 4507.47 692.028 4494.83 679.448 4494.83 658.48 4520.11 465.58 4713.88 465.58 4713.88 465.58 4713.88 465.58 4654.91 465.58 4654.91 465.58 4654.91 671.061 4427.44 671.061 4427.44 671.061 4427.44 692.028 4406.37 704.609 4393.74 692.028 4393.74 692.028 4381.1 671.061 4393.74 658.48 4406.37 465.58 4600.15 465.58 4600.15 465.58 4600.15 465.58 4541.17 465.58 4541.17 465.58 4541.17 671.061 4313.7 671.061 4313.7 671.061 4313.7 692.028 4288.42 704.609 4280 692.028 4280 692.028 4280 679.448 4280 658.48 4301.06 465.58 4486.41 465.58 4486.41 465.58 4486.41 465.58 4427.44 465.58 4427.44 465.58 4427.44 692.028 4199.96 692.028 4199.96 692.028 4199.96 704.609 4187.33 712.996 4162.05 712.996 4162.05 712.996 4162.05 692.028 4162.05 671.061 4187.33 465.58 4381.1 465.58 4381.1 465.58 4381.1 465.58 4334.76 465.58 4334.76 465.58 4334.76 679.448 4094.65 679.448 4094.65 679.448 4094.65 704.609 4073.59 712.996 4060.95 712.996 4060.95 712.996 4048.32 692.028 4060.95 679.448 4082.02 465.58 4280 465.58 4280 465.58 4280 465.58 4233.66 465.58 4233.66 465.58 4233.66 704.609 3980.92 704.609 3980.92 704.609 3980.92 725.576 3955.64 738.156 3947.22 738.156 3947.22 725.576 3947.22 712.996 3947.22 704.609 3955.64 465.58 4174.69 465.58 4174.69 465.58 4174.69 465.58 4119.93 465.58 4119.93 465.58 4119.93 738.156 3854.54 738.156 3854.54 738.156 3854.54 759.124 3841.91 771.704 3833.48 759.124 3820.84 759.124 3820.84 750.737 3833.48 725.576 3841.91 465.58 4073.59 465.58 4073.59 465.58 4073.59 465.58 4014.62 465.58 4014.62 465.58 4014.62 784.285 3728.17 784.285 3728.17 784.285 3728.17 792.672 3715.53 805.252 3707.11 805.252 3707.11 792.672 3694.47 784.285 3707.11 771.704 3715.53 465.58 3955.64 465.58 3955.64 465.58 3955.64 465.58 3913.52 465.58 3913.52 465.58 3913.52 784.285 3627.07 784.285 3627.07 784.285 3627.07 805.252 3614.44 805.252 3601.8 805.252 3601.8 805.252 3589.16 792.672 3601.8 771.704 3614.44 465.58 3867.18 465.58 3867.18 465.58 3867.18 465.58 3820.84 465.58 3820.84 465.58 3820.84 725.576 3580.74 725.576 3580.74 725.576 3580.74 738.156 3568.1 750.737 3555.46 750.737 3555.46 738.156 3547.04 725.576 3555.46 712.996 3568.1 465.58 3774.51 465.58 3774.51 465.58 3774.51 465.58 3728.17 465.58 3728.17 465.58 3728.17 645.9 3568.1 645.9 3568.1 645.9 3568.1 658.48 3547.04 671.061 3534.4 671.061 3534.4 671.061 3521.76 658.48 3534.4 633.32 3547.04 453 3669.2 453 3669.2 453 3669.2 465.58 3627.07 465.58 3627.07 465.58 3627.07 566.224 3534.4 566.224 3534.4 566.224 3534.4 578.804 3521.76 591.385 3509.12 591.385 3509.12 578.804 3500.7 566.224 3509.12 553.643 3521.76 465.58 3580.74 465.58 3580.74 465.58 3580.74 465.58 3467 465.58 3467 465.58 3467 645.9 3467 910.089 3500.7 977.185 3521.76 1044.28 3555.46 1123.96 3589.16 1161.7 3707.11L1090.41 3728.17ZM578.804 4932.93C566.224 4953.99 566.224 4966.63 566.224 4966.63 578.804 4979.26 591.385 4966.63 599.772 4953.99 692.028 4827.62 692.028 4827.62 692.028 4827.62 712.996 4793.92 712.996 4793.92 712.996 4793.92 712.996 4781.28 704.609 4793.92 679.448 4814.98L578.804 4932.93ZM671.061 4941.35C658.48 4953.99 658.48 4966.63 671.061 4979.26 671.061 4979.26 679.448 4966.63 692.028 4953.99 738.156 4886.59 738.156 4886.59 738.156 4886.59 750.737 4861.32 750.737 4852.89 750.737 4840.25 750.737 4840.25 738.156 4852.89 725.576 4873.95L671.061 4941.35ZM989.765 3568.1C956.217 3568.1 918.476 3589.16 884.928 3635.5 725.576 3947.22 712.996 4347.4 767.511 4667.54 775.898 4667.54 775.898 4667.54 775.898 4667.54 784.285 4646.48 805.252 4633.84 838.8 4633.84 897.509 4633.84 931.056 4667.54 931.056 4713.88 931.056 4760.22 910.089 4806.55 838.8 4806.55 830.413 4806.55 805.252 4806.55 805.252 4793.92 792.672 4806.55 792.672 4806.55 792.672 4806.55 817.832 4852.89 830.413 4907.65 851.38 4953.99 863.961 4966.63 876.541 4953.99 876.541 4953.99 863.961 4941.35 851.38 4920.29 851.38 4886.59 884.928 4895.02 956.217 4895.02 989.765 4895.02 884.928 4507.47 897.509 3993.55 1035.89 3660.77 1010.73 3648.13 964.604 3635.5 918.476 3635.5 931.056 3601.8 964.604 3589.16 989.765 3589.16L989.765 3568.1ZM771.704 4486.41C784.285 4486.41 784.285 4486.41 784.285 4486.41 792.672 4608.57 792.672 4608.57 792.672 4608.57 784.285 4621.21 784.285 4621.21 784.285 4621.21L771.704 4486.41ZM838.8 4772.85C884.928 4772.85 897.509 4747.58 897.509 4713.88 897.509 4680.18 863.961 4667.54 838.8 4667.54 817.832 4667.54 792.672 4680.18 792.672 4713.88 792.672 4734.94 805.252 4772.85 838.8 4772.85ZM805.252 4473.77C817.832 4473.77 817.832 4473.77 817.832 4473.77 830.413 4600.15 830.413 4600.15 830.413 4600.15 805.252 4600.15 805.252 4600.15 805.252 4600.15L805.252 4473.77ZM838.8 4814.98C851.38 4873.95 851.38 4873.95 851.38 4873.95 838.8 4873.95 838.8 4873.95 838.8 4873.95 817.832 4814.98 817.832 4814.98 817.832 4814.98L838.8 4814.98ZM838.8 4486.41C863.961 4486.41 863.961 4486.41 863.961 4486.41 863.961 4600.15 863.961 4600.15 863.961 4600.15 838.8 4600.15 838.8 4600.15 838.8 4600.15L838.8 4486.41ZM863.961 4814.98C884.928 4873.95 884.928 4873.95 884.928 4873.95 863.961 4873.95 863.961 4873.95 863.961 4873.95 851.38 4814.98 851.38 4814.98 851.38 4814.98L863.961 4814.98ZM876.541 4528.53C897.509 4528.53 897.509 4528.53 897.509 4528.53 897.509 4600.15 897.509 4600.15 897.509 4600.15 884.928 4600.15 884.928 4600.15 884.928 4600.15L876.541 4528.53ZM897.509 4806.55C918.476 4886.59 918.476 4886.59 918.476 4886.59 897.509 4873.95 897.509 4873.95 897.509 4873.95 884.928 4814.98 884.928 4814.98 884.928 4814.98L897.509 4806.55ZM931.056 4793.92C956.217 4886.59 956.217 4886.59 956.217 4886.59 943.637 4886.59 943.637 4886.59 943.637 4886.59 918.476 4806.55 918.476 4806.55 918.476 4806.55L931.056 4793.92ZM2059.1 4827.62C2084.26 4840.25 2151.36 4941.35 2184.91 4979.26 2176.52 5000.33 2151.36 5021.39 2117.81 5021.39 2038.13 5021.39 1945.88 4932.93 1899.75 4840.25 1958.46 4827.62 2025.55 4827.62 2059.1 4827.62ZM2549.74 4979.26C2516.19 5012.96 2470.06 5034.03 2415.55 5034.03 2323.29 5034.03 2218.45 4966.63 2130.39 4827.62 2243.61 4840.25 2461.68 4907.65 2549.74 4979.26ZM2688.12 4427.44C2675.54 4448.5 2629.41 4507.47 2621.03 4507.47 2608.45 4520.11 2562.32 4494.83 2528.77 4473.77 2503.61 4461.13 2470.06 4427.44 2470.06 4414.8 2470.06 4406.37 2516.19 4301.06 2541.35 4254.73L2688.12 4427.44ZM2528.77 4187.33C2574.9 4153.63 2629.41 4082.02 2654.57 4027.25 2780.38 4035.68 2872.64 4035.68 2927.15 4027.25 3040.37 4119.93 3178.76 4280 3178.76 4494.83 3178.76 4608.57 3086.5 4667.54 3031.99 4701.24 2927.15 4654.91 2734.25 4566.45 2654.57 4528.53 2700.7 4486.41 2734.25 4440.07 2801.35 4427.44 2826.51 4414.8 2847.47 4414.8 2847.47 4406.37 2847.47 4406.37 2834.89 4406.37 2813.93 4393.74 2788.77 4393.74 2767.8 4406.37 2734.25 4406.37L2528.77 4187.33ZM2927.15 5021.39C3031.99 5046.66 3086.5 5021.39 3111.66 4953.99 3120.05 4895.02 3086.5 4814.98 3006.83 4781.28 2893.6 4734.94 2801.35 4726.52 2755.22 4827.62 2709.09 4953.99 2801.35 5012.96 2927.15 5021.39ZM2985.86 4814.98C3052.96 4852.89 3073.92 4895.02 3065.54 4941.35 3052.96 4987.69 3006.83 5012.96 2914.57 4987.69 2788.77 4966.63 2767.8 4907.65 2788.77 4852.89 2813.93 4781.28 2872.64 4760.22 2985.86 4814.98ZM4067.78 3833.48C4101.32 3854.54 4181 3900.88 4181 3900.88 4181 3921.94 4113.9 3913.52 4034.23 3888.24 3975.52 3875.61 3887.46 3820.84 3895.84 3787.15 3941.97 3787.15 4021.65 3820.84 4067.78 3833.48Z" fill="#3C3C3B" fill-rule="evenodd"/></g></svg>