<svg xmlns="http://www.w3.org/2000/svg" width="1221.146" height="93.945" viewBox="0 0 1221.146 93.945">
  <g>
    <path d="M0,91.69,3.006,77.41h8.768l13.4-61H16.409l3.257-14.53H59c18.413,0,25.3,10.9,25.3,22.046,0,11.649-6.889,19.039-15.657,22.421A20.112,20.112,0,0,1,79.289,64.258c0,15.658-13.653,27.432-33.82,27.432ZM45.594,52.734H36.951L31.314,77.285h9.771c11.148,0,17.536-5.637,17.536-13.779C58.621,58.121,55.49,52.734,45.594,52.734Zm8.142-36.325H44.968L39.582,39.332h9.394c8.518,0,15.157-5.011,15.157-13.4C64.133,21.043,61.377,16.409,53.736,16.409Z" fill="#fff"/>
    <path d="M113.609,77.41h8.518l-3.006,14.28H82.42l3.006-14.28h8.517l13.4-61.126H98.829l3.256-14.4H143.3c17.536,0,25.553,10.9,25.553,22.8s-7.641,21.169-19.04,25.052c3.883,3.131,5.011,8.393,5.011,13.528,0,2.255-.251,8.267-.251,10.271,0,3.007,2,4.134,4.76,4.134,2.5,0,5.136-.125,7.39-.251l-3.006,14.28c-2.5.125-6.639.5-14.78.5-9.019,0-14.28-4.885-14.28-13.778,0-6.013.626-8.393.626-14.531,0-7.265-1.879-11.023-8.643-11.023h-7.515Zm24.3-61H127.137L122,39.457h12.526c8.141,0,14.029-6.013,14.029-13.653C148.557,20.793,145.175,16.409,137.91,16.409Z" fill="#fff"/>
    <path d="M229.473,77.285h7.641l.626-12.4H210.434l-8.894,12.4h7.265L205.8,91.69H170.977l3.006-14.4H183l55.49-75.406h21.92l-2.756,75.406h8.769L263.418,91.69H226.467ZM220.83,50.479h17.662l1.879-27.056Z" fill="#fff"/>
    <path d="M270.433,91.69l3-14.28h9.019l13.4-61h-9.018L290.1,1.879h25.927c14.657,0,22.923,2.129,29.562,5.762,10.4,5.762,16.785,15.908,16.785,30.939,0,24.05-12.4,40.709-31.064,48.475-6.764,2.756-15.157,4.635-29.938,4.635Zm34.822-14.28c21.419,0,35.949-14.4,35.949-38.2,0-9.269-3.382-16.158-9.269-19.54a27.2,27.2,0,0,0-13.278-3.257h-3.006l-13.4,61Z" fill="#fff"/>
    <path d="M392.183,77.41H410.1c4.259,0,5.26-.876,6.889-4.76L420.491,61.5h16.284c-2.63,10.021-4.008,20.167-6.638,30.188H360.868l3.006-14.28h8.518l13.4-61h-8.518l3.257-14.53h36.2l-3.256,14.53h-7.891Z" fill="#fff"/>
    <path d="M494.269,77.41c4.885,0,5.762-.751,7.14-5.261l2.5-7.891h17.661L515.312,91.69H439.781l3.006-14.28h8.769l13.4-61H456.19l3.257-14.53h73.277l-5.888,26.054H510.678c.877-4.76,1.5-8.142,1.5-9.144,0-1.628-.877-2.38-3.382-2.38h-24.05l-5.136,23.3h10.4l2-8.769h15.657L500.782,62H485l2-9.144H476.732L471.347,77.41Z" fill="#fff"/>
    <path d="M615.145,16.409,582.7,55.114l-5.01,22.3h9.645l-3.006,14.28H545.25l3.006-14.28h9.77l5.011-22.3-13.4-38.7h-9.77l3.257-14.53h36.45l-3.257,14.53h-6.638l7.765,22.3,18.664-22.3h-6.388l3.257-14.53h35.574l-3.257,14.53Z" fill="#fff"/>
    <path d="M687.418,93.443c-9.52,0-17.035-3.256-20.793-6.513l-1,4.76H649.089L655.1,63.757h16.409a9.427,9.427,0,0,0-.126,1.879c0,8.643,6.764,13.528,14.53,13.528,6.765,0,13.277-3.131,13.277-11.148,0-6.013-4.884-8.768-11.273-12.15L676.146,49.6c-7.767-4.134-14.156-10.522-14.156-22.046C661.99,13.779,673.39.25,691.677.25c10.021,0,16.159,3.007,19.416,5.763l1-4.134h16.534L722.616,28.81H706.207c0-9.144-4.885-14.28-12.651-14.28-8.142,0-12.4,5.261-12.4,10.772,0,5.011,4.009,7.766,9.395,10.522l11.774,6.138c8.643,4.509,16.659,10.522,16.659,23.674C718.983,82.17,706.082,93.443,687.418,93.443Z" fill="#fff"/>
    <path d="M780.234,77.285h7.641l.626-12.4H761.194l-8.892,12.4h7.264l-3,14.405H721.738l3.006-14.4h9.019l55.49-75.406h21.92l-2.755,75.406h8.768L814.18,91.69H777.228Zm-8.642-26.806h17.661l1.879-27.056Z" fill="#fff"/>
    <path d="M917.394,16.409,900.859,91.69H885.076L860.525,29.436,850.254,77.41h9.269l-3,14.28H821.194L824.2,77.41H833.6l13.4-61H837.6l3.256-14.53h29.561l21.545,53.987,8.767-39.457h-9.268l3.257-14.53H930.3l-3.257,14.53Z" fill="#fff"/>
    <path d="M958.478,93.443c-9.52,0-17.036-3.256-20.793-6.513l-1,4.76H920.148l6.013-27.933H942.57a9.427,9.427,0,0,0-.126,1.879c0,8.643,6.765,13.528,14.531,13.528,6.764,0,13.277-3.131,13.277-11.148,0-6.013-4.885-8.768-11.273-12.15L947.2,49.6c-7.766-4.134-14.154-10.522-14.154-22.046,0-13.778,11.4-27.307,29.686-27.307,10.022,0,16.16,3.007,19.416,5.763l1-4.134h16.534L993.676,28.81H977.267c0-9.144-4.885-14.28-12.652-14.28-8.141,0-12.4,5.261-12.4,10.772,0,5.011,4.009,7.766,9.394,10.522l11.775,6.138c8.642,4.509,16.659,10.522,16.659,23.674C990.043,82.17,977.142,93.443,958.478,93.443Z" fill="#fff"/>
    <path d="M1002.943,55.741c0-28.685,21.545-55.741,51.482-55.741C1076.847,0,1091,16.66,1091,38.079c0,30.188-22.8,55.866-51.481,55.866C1017.1,93.945,1002.943,77.16,1002.943,55.741Zm50.105-40.585c-18.163,0-29.061,24.426-29.061,41.962,0,10.9,4.008,21.67,17.16,21.67,18.039,0,28.936-24.425,28.936-41.962C1070.083,25.929,1066.074,15.156,1053.048,15.156Z" fill="#fff"/>
    <path d="M1164.028,91.69l3.006-14.28h8.643l11.273-51.481L1149.122,91.69h-12.15L1128.2,25.929,1116.931,77.41h9.143l-3.006,14.28h-34.446l3.006-14.28h9.018l13.4-61h-9.019l3.257-14.53h36.074l6.89,58L1184.57,1.879h36.576l-3.256,14.53h-9.144l-13.4,61h9.144l-3.007,14.28Z" fill="#fff"/>
  </g>
</svg>
