<svg xmlns="http://www.w3.org/2000/svg" width="628.547" height="205.378" viewBox="0 0 628.547 205.378">
  <g>
    <path d="M0,89.811l3.006-14.28h8.768l13.4-61H16.409L19.666,0H59C77.41,0,84.3,10.9,84.3,22.045c0,11.649-6.889,19.039-15.657,22.422A20.111,20.111,0,0,1,79.289,62.379c0,15.657-13.653,27.432-33.82,27.432ZM45.594,50.855H36.951L31.314,75.406h9.771c11.148,0,17.536-5.636,17.536-13.779C58.621,56.241,55.49,50.855,45.594,50.855Zm8.142-36.326H44.968L39.582,37.452h9.394c8.518,0,15.157-5.011,15.157-13.4C64.133,19.164,61.377,14.529,53.736,14.529Z" fill="#fff"/>
    <path d="M113.609,75.531h8.518l-3.006,14.28H82.42l3.006-14.28h8.518l13.4-61.127H98.829L102.085,0H143.3c17.536,0,25.553,10.9,25.553,22.8s-7.641,21.169-19.04,25.052c3.883,3.131,5.011,8.392,5.011,13.528,0,2.254-.251,8.267-.251,10.271,0,3.006,2,4.133,4.76,4.133,2.5,0,5.136-.125,7.39-.25l-3.006,14.28c-2.5.125-6.639.5-14.78.5-9.019,0-14.28-4.886-14.28-13.779,0-6.012.626-8.392.626-14.53,0-7.265-1.879-11.023-8.643-11.023h-7.515Zm24.3-61H127.137L122,37.577h12.527c8.141,0,14.029-6.013,14.029-13.653C148.557,18.914,145.175,14.529,137.91,14.529Z" fill="#fff"/>
    <path d="M229.473,75.406h7.641l.626-12.4H210.434l-8.894,12.4h7.265L205.8,89.811H170.977l3.006-14.4H183L238.492,0h21.92l-2.756,75.406h8.768l-3.006,14.405H226.467ZM220.83,48.6h17.662l1.879-27.056Z" fill="#fff"/>
    <path d="M270.433,89.811l3-14.28h9.02l13.4-61h-9.019L290.1,0h25.928c14.656,0,22.923,2.129,29.562,5.762,10.4,5.761,16.785,15.908,16.785,30.939,0,24.049-12.4,40.709-31.064,48.475-6.765,2.756-15.157,4.635-29.937,4.635Zm34.821-14.28c21.42,0,35.95-14.405,35.95-38.205,0-9.268-3.383-16.158-9.269-19.539a27.2,27.2,0,0,0-13.278-3.258H315.65l-13.4,61Z" fill="#fff"/>
    <path d="M392.183,75.531H410.1c4.259,0,5.261-.877,6.889-4.76l3.507-11.148h16.284c-2.63,10.021-4.007,20.167-6.638,30.188H360.868l3.006-14.28h8.518l13.4-61h-8.518L380.534,0h36.2l-3.256,14.529h-7.892Z" fill="#fff"/>
    <path d="M494.269,75.531c4.884,0,5.761-.752,7.139-5.261l2.506-7.891h17.661l-6.263,27.432H439.781l3.006-14.28h8.769l13.4-61h-8.769L459.446,0h73.278l-5.888,26.054H510.678c.877-4.761,1.5-8.142,1.5-9.144,0-1.629-.877-2.381-3.382-2.381h-24.05l-5.136,23.3h10.4l2-8.768h15.658l-6.89,31.064H485l2-9.144H476.732l-5.386,24.551Z" fill="#fff"/>
    <path d="M615.144,14.529,582.7,53.234l-5.01,22.3h9.645l-3.006,14.28H545.249l3.007-14.28h9.769l5.011-22.3-13.4-38.7h-9.771L543.12,0h36.45l-3.257,14.529h-6.638l7.765,22.3,18.664-22.3h-6.388L592.973,0h35.574L625.29,14.529Z" fill="#fff"/>
    <path d="M54.55,204.877c-9.52,0-17.036-3.257-20.793-6.514l-1,4.76H16.22l6.013-27.933H38.641a9.5,9.5,0,0,0-.125,1.879c0,8.643,6.765,13.528,14.53,13.528,6.764,0,13.278-3.131,13.278-11.148,0-6.012-4.885-8.768-11.273-12.15l-11.775-6.263C35.51,156.9,29.122,150.514,29.122,138.99c0-13.778,11.4-27.306,29.686-27.306,10.021,0,16.159,3,19.415,5.761l1-4.133H95.76l-6.013,26.93H73.338c0-9.142-4.885-14.279-12.651-14.279-8.142,0-12.4,5.262-12.4,10.772,0,5.011,4.009,7.767,9.395,10.523L69.455,153.4c8.643,4.509,16.66,10.522,16.66,23.674C86.115,193.6,73.213,204.877,54.55,204.877Z" fill="#fff"/>
    <path d="M147.366,188.718h7.641l.626-12.4H128.326l-8.893,12.4H126.7l-3.006,14.405H88.87l3.006-14.4H100.9l55.49-75.406h21.92l-2.756,75.406h8.768l-3.006,14.405H144.36Zm-8.643-26.806h17.662l1.878-27.056Z" fill="#fff"/>
    <path d="M284.525,127.842,267.99,203.123H252.208l-24.552-62.254-10.271,47.975h9.27l-3.007,14.279H188.325l3.006-14.279h9.4l13.4-61h-9.395l3.257-14.53h29.561L259.1,167.3l8.768-39.457H258.6l3.256-14.53h35.574l-3.256,14.53Z" fill="#fff"/>
    <path d="M325.609,204.877c-9.52,0-17.035-3.257-20.793-6.514l-1,4.76H287.28l6.012-27.933H309.7a9.5,9.5,0,0,0-.125,1.879c0,8.643,6.764,13.528,14.529,13.528,6.765,0,13.279-3.131,13.279-11.148,0-6.012-4.886-8.768-11.274-12.15l-11.774-6.263c-7.767-4.134-14.155-10.522-14.155-22.046,0-13.778,11.4-27.306,29.687-27.306,10.02,0,16.158,3,19.415,5.761l1-4.133h16.534l-6.013,26.93H344.4c0-9.142-4.885-14.279-12.65-14.279-8.143,0-12.4,5.262-12.4,10.772,0,5.011,4.009,7.767,9.395,10.523l11.774,6.137c8.644,4.509,16.661,10.522,16.661,23.674C357.175,193.6,344.272,204.877,325.609,204.877Z" fill="#fff"/>
    <path d="M370.075,167.174c0-28.685,21.545-55.74,51.481-55.74,22.422,0,36.577,16.659,36.577,38.078,0,30.187-22.8,55.866-51.482,55.866C384.229,205.378,370.075,188.593,370.075,167.174Zm50.1-40.584c-18.162,0-29.059,24.426-29.059,41.961,0,10.9,4.008,21.671,17.16,21.671,18.037,0,28.935-24.426,28.935-41.962C437.214,137.361,433.206,126.59,420.178,126.59Z" fill="#fff"/>
    <path d="M531.159,203.123l3.007-14.279h8.642l11.274-51.483-37.828,65.762H504.1l-8.768-65.762-11.273,51.483h9.144L490.2,203.123H455.754l3.006-14.279h9.018l13.4-61h-9.018l3.257-14.53h36.075l6.889,58,33.319-58h36.575l-3.257,14.53h-9.143l-13.4,61h9.144l-3.006,14.279Z" fill="#fff"/>
  </g>
</svg>
