<svg xmlns="http://www.w3.org/2000/svg" viewBox="0 0 599.23 1111.08"><defs><style>.cls-1{fill:#fff;}</style></defs><title>black-white</title><g id="Layer_2" data-name="Layer 2"><g id="Layer_3" data-name="Layer 3"><path d="M87.38,299.61c0-117,95.21-212.23,212.23-212.23h15.26V0H299.61A299.61,299.61,0,0,0,0,299.61v15.26H87.38Zm-72.12,0c0-157,127.31-284.36,284.35-284.36V72.13C174,72.13,72.13,174,72.13,299.61Z"/><path d="M511.85,811.46c0,117-95.21,212.23-212.24,212.23H284.36v87.39h15.25A299.63,299.63,0,0,0,599.23,811.46V796.21H511.85Zm15.25,0H584c0,157-127.31,284.36-284.36,284.36V1039C425.25,1039,527.1,937.1,527.1,811.46Z"/><path d="M511.85,284.36v15.25c0,117-95.21,212.24-212.24,212.24a296.73,296.73,0,0,0-130.74,30A299.61,299.61,0,0,0,0,811.46v15.26H87.38V811.46c0-117,95.21-212.23,212.23-212.23a296.74,296.74,0,0,0,130.75-30A299.61,299.61,0,0,0,599.23,299.61V284.36ZM423.69,555.54A283.22,283.22,0,0,1,299.61,584C174,584,72.13,685.82,72.13,811.46H15.26c0-112.56,65.4-209.84,160.28-255.92A283.21,283.21,0,0,1,299.61,527.1c125.64,0,227.49-101.85,227.49-227.49H584C584,412.18,518.57,509.45,423.69,555.54Z"/><path class="cls-1" d="M15.25,299.61c0-157,127.32-284.36,284.36-284.36V72.13C174,72.13,72.13,174,72.13,299.61Z"/><path class="cls-1" d="M527.1,811.46H584c0,157-127.31,284.36-284.36,284.36V1039C425.25,1039,527.1,937.1,527.1,811.46Z"/><path class="cls-1" d="M584,299.61c0,112.57-65.4,209.84-160.28,255.93A283.22,283.22,0,0,1,299.61,584C174,584,72.13,685.82,72.13,811.46H15.25c0-112.56,65.41-209.84,160.29-255.92A283.21,283.21,0,0,1,299.61,527.1c125.64,0,227.49-101.85,227.49-227.49H584Z"/></g></g></svg>