<?xml version="1.0" encoding="UTF-8" standalone="no"?>
<!-- Created with Inkscape (http://www.inkscape.org/) -->

<svg
   xmlns:dc="http://purl.org/dc/elements/1.1/"
   xmlns:cc="http://creativecommons.org/ns#"
   xmlns:rdf="http://www.w3.org/1999/02/22-rdf-syntax-ns#"
   xmlns:svg="http://www.w3.org/2000/svg"
   xmlns="http://www.w3.org/2000/svg"
   xmlns:sodipodi="http://sodipodi.sourceforge.net/DTD/sodipodi-0.dtd"
   xmlns:inkscape="http://www.inkscape.org/namespaces/inkscape"
   width="1000"
   height="199.22887"
   viewBox="0 0 100 19.922887"
   version="1.1"
   id="svg8"
   inkscape:version="0.92.3 (2405546, 2018-03-11)"
   sodipodi:docname="A.svg">
  <defs
     id="defs2">
    <clipPath
       clipPathUnits="userSpaceOnUse"
       id="clipPath17715">
      <path
         d="M 0,0 H 1188 V 1684.8 H 0 Z"
         id="path17713"
         inkscape:connector-curvature="0" />
    </clipPath>
  </defs>
  <sodipodi:namedview
     id="base"
     pagecolor="#ffffff"
     bordercolor="#666666"
     borderopacity="1.0"
     inkscape:pageopacity="0.0"
     inkscape:pageshadow="2"
     inkscape:zoom="0.43355452"
     inkscape:cx="802.29542"
     inkscape:cy="166.82997"
     inkscape:document-units="px"
     inkscape:current-layer="layer1"
     showgrid="false"
     units="px"
     fit-margin-top="0"
     fit-margin-left="0"
     fit-margin-right="0"
     fit-margin-bottom="0" />
  <metadata
     id="metadata5">
    <rdf:RDF>
      <cc:Work
         rdf:about="">
        <dc:format>image/svg+xml</dc:format>
        <dc:type
           rdf:resource="http://purl.org/dc/dcmitype/StillImage" />
        <dc:title></dc:title>
      </cc:Work>
    </rdf:RDF>
  </metadata>
  <g
     inkscape:label="Layer 1"
     inkscape:groupmode="layer"
     id="layer1"
     transform="translate(87.838096,43.516622)">
    <path
       inkscape:connector-curvature="0"
       id="path17719"
       style="fill:#FFFFFF;fill-opacity:1;fill-rule:nonzero;stroke:none;stroke-width:0.48832634"
       d="m -64.245586,-25.257466 c -4.341221,0 -6.408795,-2.356175 -6.408795,-4.863242 v -11.307684 h 4.64203 v 10.937044 c 0,0.70319 0.571342,1.283322 1.767253,1.283322 1.160752,0 1.766277,-0.576713 1.766277,-1.283322 v -10.937044 h 4.64203 v 11.307684 c 0,2.526601 -2.295622,4.863242 -6.408795,4.863242 m 15.660625,-0.339387 c 3.118941,0 5.224115,-1.681796 5.224115,-4.818316 0,-1.661286 -0.822829,-2.800551 -2.182818,-3.55941 1.172471,-0.788647 1.764811,-1.854664 1.764811,-3.119917 0,-2.456282 -1.714025,-4.332431 -5.069315,-4.333896 h -7.516808 v 15.831539 z m 0.164566,-10.961461 c 0,0.827225 -0.374058,1.418588 -1.188098,1.418588 l -2.151077,-4.88e-4 v -2.835711 h 2.151077 c 0.804274,0 1.188098,0.558157 1.188098,1.417611 m -0.962002,7.439652 h -2.377173 v -3.005649 h 2.377173 c 0.869709,0 1.308226,0.552786 1.308226,1.499162 0,0.909264 -0.418984,1.50551 -1.308226,1.506487 m -25.798281,3.353337 c 2.280484,-0.471235 3.683934,-1.947446 3.683934,-4.415447 0,-2.939236 -1.881033,-3.785506 -5.306154,-5.398448 -1.630033,-0.768137 -2.029484,-0.970304 -2.029484,-1.457165 0,-0.333527 0.24514,-0.655823 0.746651,-0.647521 l 5.769576,0.09376 v -3.808458 c 0,0 -3.509602,-0.05664 -4.768019,-0.07667 -0.613826,-0.0098 -1.547017,0.01123 -2.057318,0.07716 -2.508044,0.327178 -4.216698,1.973327 -4.216698,4.334384 0,3.04911 2.184283,4.001835 4.970185,5.319827 1.732094,0.820389 2.332735,1.033787 2.332735,1.662752 0,0.348176 -0.24514,0.681215 -0.826248,0.671448 l -6.144122,-0.04639 v -2.085153 l -4.812456,3.974488 4.812456,3.973023 v -2.073922 l 5.47072,0.03858 c 0.716375,-4.89e-4 1.770183,-0.01172 2.374242,-0.136243" />
    <path
       inkscape:connector-curvature="0"
       id="path17723"
       style="fill:#FFFFFF;fill-opacity:1;fill-rule:nonzero;stroke:none;stroke-width:0.48832634"
       d="m -3.2540666,-35.205308 c 0,0.596246 0.4057992,1.294065 1.7828794,1.294065 1.37805693,0 1.78336779,-0.697819 1.78336779,-1.294065 v -2.495836 c 0,-2.259974 1.13975361,-3.823107 3.84508151,-3.823107 h 3.1921892 v -1.992371 l 4.8124557,3.974488 -4.8124557,3.974 v -2.00458 l -2.0602488,9.77e-4 c -0.2685794,0 -0.3852894,0.139173 -0.3852894,0.372593 v 2.448956 c 0,2.200887 -1.4278662,3.873405 -4.00720589,4.57513 v 4.579524 H -3.7961088 v -4.579524 c -2.5397853,-0.686587 -4.0521319,-2.365453 -4.0521319,-4.57513 v -6.677862 h 4.5931974 v 6.222742 z m -25.6278544,9.875912 c 3.87194,0 5.706582,-2.352757 5.706582,-4.933073 v -11.16607 h -4.632752 v 11.064987 c 0,0.489303 -0.255395,1.020113 -1.314575,1.020113 -1.059668,0 -1.306761,-0.553762 -1.306761,-1.020113 v -11.064987 h -4.63031 v 11.064987 c 0,0.479048 -0.267115,1.020113 -1.322876,1.020113 -1.042089,0 -1.298948,-0.569877 -1.298948,-1.020113 v -11.064987 h -4.63324 v 11.16607 c 0,2.584223 1.693027,4.933073 5.833546,4.933073 1.554831,0 2.79518,-0.498093 3.720558,-1.235954 0.941005,0.740791 2.225303,1.235954 3.878776,1.235954 m 11.765247,-0.26565 v -4.586849 h 3.506183 v 4.586849 h 4.6181017 v -11.317939 c 0,-2.859151 -2.3742427,-4.97751 -6.3711937,-4.97751 -4.038947,0 -6.370217,2.135451 -6.370217,4.97751 v 11.317939 z m 3.507648,-8.219997 h -3.50716 v -2.826433 c 0,-0.746162 0.517626,-1.295529 1.75358,-1.295529 1.228629,0 1.752603,0.54253 1.752603,1.295529 z"
       sodipodi:nodetypes="cssssccccccssccccscccccsccsssccsssccsscccccccsssccccsscc" />
  </g>
</svg>
