<svg xmlns="http://www.w3.org/2000/svg" xmlns:xlink="http://www.w3.org/1999/xlink" width="99" height="41" viewBox="0 0 99 41">
  <defs>
    <path id="a" d="M0 .24h98.464V41H0z"/>
  </defs>
  <g fill="none" fill-rule="evenodd">
    <path fill="#fff" d="M90.472 27.52l.51-1.21a14.08 14.08 0 0 0 1.097-5.483c0-2.065-.427-4.175-1.271-6.271l-.51-1.26-.53 1.25c-.738 1.736-1.112 3.615-1.112 5.585a15.581 15.581 0 0 0 1.292 6.185l.524 1.204zM43.727 27.52l.51-1.21a14.064 14.064 0 0 0 1.098-5.483c.001-2.065-.427-4.175-1.273-6.271l-.508-1.26-.53 1.25c-.739 1.736-1.113 3.615-1.113 5.585a15.598 15.598 0 0 0 1.291 6.185l.525 1.204z"/>
    <g transform="translate(0 -.239)">
      <mask id="b" fill="#fff">
        <use xlink:href="#a"/>
      </mask>
      <path fill="#fff" d="M1.626 20.442C1.628 14.362 3.72 8.47 7.518 3.855l.523-.635.525.632c3.064 3.707 5.075 8.527 5.748 13.612H9.385a18.155 18.155 0 0 0-.844-2.668l-.508-1.26-.532 1.25C6.763 16.52 6.389 18.4 6.389 20.37c0 2.107.446 4.247 1.292 6.186l.524 1.204.51-1.21c.395-.938.681-1.912.863-2.91h4.875c-.294 3.219-1.169 6.245-2.577 8.862l-.02.04c-.719 1.534-1.71 3.099-3.117 4.928l-.54.703-.538-.703c-2.232-2.924-3.929-6.206-4.909-9.497a25.47 25.47 0 0 1-1.126-7.53zm6.403 1.3h6.498V19.34H8.029v2.401zM21.806 2.964V18.6l2.818.002.005-15.635h4.782l.023 35.434h-4.8l-.005-15.866-2.742-.006.019 15.872-5.326-.002V12.492l-.021-9.527h5.247zm9.375 0h4.558l.014 35.438-4.572.008V2.965zm8.509 6.55c.752-1.629 1.71-3.094 2.636-4.51.265-.404.527-.804.781-1.205l.507-.792.594.728c3.724 4.574 5.862 10.855 5.866 17.23 0 3.325-.561 6.5-1.668 9.447l-.128.34 3.982 7.66-3.738-.007-.182-.395a39.49 39.49 0 0 0-1.253-2.43l-.63-1.147-.749 1.072a66 66 0 0 1-1.056 1.453l-.424.575-.542.736-.549-.73c-3.699-4.934-5.738-11.031-5.741-17.165 0-3.817.773-7.472 2.294-10.86zm12.016-6.543h4.642v18.543c0 5.17 1.404 6.886 1.404 6.886s1.397-1.716 1.397-6.886V2.972h4.643v21.363c0 2.206-1.128 7.816-6.04 13.718-4.911-5.902-6.046-11.512-6.046-13.717V2.973zm18.493-.006l.013 35.437-4.692.01-.023-35.447h4.702zm15.896 0v3.35l-.074.13h-4.742l.025 31.968h-4.922l.004-31.975-4.559.005-.002-3.478h14.27zm3.694.89l.523-.636.525.632c3.807 4.605 5.994 10.928 6 17.345 0 4.127-.931 8.035-2.69 11.304l-.02.04c-.719 1.534-1.709 3.099-3.116 4.928l-.541.703-.537-.703c-2.233-2.924-3.93-6.206-4.91-9.497a25.47 25.47 0 0 1-1.126-7.53c.002-6.08 2.094-11.973 5.892-16.587zm-6.878 10.626l-.005-6.41h2.244a27.826 27.826 0 0 0-2.239 6.41zM8.195 40.843l1.833-2.383c1.475-1.916 2.521-3.573 3.291-5.21.655-1.22 1.2-2.522 1.635-3.884v10.655l8.58.006 5.902-.002v.015l7.943-.016-.003-9.995a30.445 30.445 0 0 0 4.46 8.484L43.698 41l1.841-2.504c.138-.189.278-.377.42-.57l.315-.425c.206.395.406.796.59 1.195l.619 1.335 7.458.013-4.887-9.402c.256-.712.482-1.433.678-2.17 1.08 3.837 2.843 7.201 5.272 10.038l1.739 2.035 1.754-2.02c1.886-2.17 3.341-4.728 4.392-7.734l.006 9.25 7.944-.016-.012-31.954 2.933-.005-.005 31.975h8.177l-.011-13.661c.155.697.336 1.385.546 2.067 1.034 3.469 2.822 6.93 5.173 10.01l1.826 2.387 1.833-2.383c1.475-1.916 2.521-3.573 3.291-5.21 1.879-3.5 2.873-7.666 2.874-12.054-.007-6.79-2.33-13.49-6.374-18.381L90.307.666l-1.774 2.158c-.279.339-.55.685-.812 1.038V1.34H49.85l-.028 9.107c-1.051-2.852-2.521-5.487-4.354-7.737L43.453.24l-1.717 2.686c-.251.395-.51.79-.771 1.19-.958 1.466-1.949 2.98-2.755 4.726-.31.69-.59 1.39-.842 2.1l-.003-9.603H14.93l.024 11.157v.171c-1.075-3.66-2.821-7.051-5.135-9.851L8.036.666 6.262 2.825C2.226 7.726.002 13.983 0 20.442c0 2.742.403 5.438 1.196 8.003 1.033 3.47 2.822 6.93 5.173 10.01l1.826 2.388z" mask="url(#b)"/>
    </g>
  </g>
</svg>
